<svg width="135" height="36" viewBox="0 0 135 36" fill="none" xmlns="http://www.w3.org/2000/svg">
  <g clip-path="url(#a)" fill="#ff6900">
    <path d="M17.4 3h-5.8v8.746A2.9 2.9 0 0 1 8.7 14.6H0v5.8h6.298a5.8 5.8 0 0 0 4.1-1.699l5.303-5.302A5.8 5.8 0 0 0 17.4 9.298zm-5.798 29h5.8v-8.746a2.9 2.9 0 0 1 2.9-2.854h8.7v-5.8h-6.298a5.8 5.8 0 0 0-4.101 1.698L13.3 21.601a5.8 5.8 0 0 0-1.698 4.101z"/>
  </g>
  <path d="M38.74 28V7.7h7.395q1.61 0 2.9.667a4.97 4.97 0 0 1 2.059 1.885q.768 1.218.768 2.885 0 .74-.217 1.494a4.3 4.3 0 0 1-.667 1.363q-.45.594-1.16.884.942.233 1.537.841.595.61.928 1.436.333.812.45 1.668.13.84.13 1.566 0 1.61-.797 2.87a5.8 5.8 0 0 1-2.147 2.002Q48.585 28 46.963 28zm3.538-3.03h4.321q.87 0 1.566-.421a3.14 3.14 0 0 0 1.117-1.16q.42-.74.42-1.682 0-.812-.42-1.537a3.4 3.4 0 0 0-1.117-1.175q-.696-.45-1.566-.449h-4.321zm0-9.411h3.451q1.072 0 1.827-.667.769-.667.769-1.769 0-1.175-.769-1.769-.755-.609-1.827-.609h-3.451zm12.336 7.076V13.5h3.538v8.207q0 .855.42 1.566.42.696 1.117 1.117.71.405 1.552.406a3.05 3.05 0 0 0 1.566-.406q.696-.42 1.116-1.117.42-.711.42-1.566V13.5h3.539l.014 14.5h-3.538l-.014-1.32a5.7 5.7 0 0 1-1.784 1.247q-1.029.45-2.204.45a5.6 5.6 0 0 1-2.885-.768 6.04 6.04 0 0 1-2.088-2.074q-.77-1.305-.769-2.9M70.8 13.5h3.538V28H70.8zm1.798-1.87q-.783 0-1.32-.508-.537-.522-.536-1.305 0-.769.536-1.29a1.8 1.8 0 0 1 1.305-.522q.769 0 1.29.521.537.522.537 1.291 0 .783-.522 1.305-.522.508-1.29.508M77.879 28V6.25h3.538V28zM95.637 6.25h3.538V28h-3.537v-1.812a5.5 5.5 0 0 1-1.755 1.58q-1.059.609-2.45.609a7.4 7.4 0 0 1-2.959-.594 7.9 7.9 0 0 1-2.436-1.639 7.9 7.9 0 0 1-1.638-2.436 7.4 7.4 0 0 1-.595-2.958q0-1.581.595-2.958a7.77 7.77 0 0 1 4.075-4.075 7.4 7.4 0 0 1 2.958-.594q1.39 0 2.45.609 1.058.594 1.755 1.58zm-4.161 18.72q1.131 0 2.001-.566a3.9 3.9 0 0 0 1.363-1.523 4.64 4.64 0 0 0 .493-2.131q0-1.175-.493-2.131a3.86 3.86 0 0 0-1.377-1.538q-.87-.565-1.987-.565t-2.044.58a4.26 4.26 0 0 0-1.465 1.523 4.3 4.3 0 0 0-.537 2.131q0 1.175.551 2.131a4.26 4.26 0 0 0 1.465 1.523 3.83 3.83 0 0 0 2.03.566m11.183-11.47h3.538V28h-3.538zm1.798-1.87q-.783 0-1.32-.508-.536-.522-.536-1.305 0-.769.536-1.29a1.8 1.8 0 0 1 1.305-.522q.77 0 1.291.521.537.522.536 1.291 0 .783-.522 1.305-.522.508-1.29.508m9.329-1.175V13.5h3.958v3.538h-3.958V28h-3.538V17.038h-1.581V13.5h1.581v-3.045q0-1.246.609-2.277a4.63 4.63 0 0 1 1.667-1.653 4.4 4.4 0 0 1 2.306-.623q.913 0 1.812.377.9.377 1.595 1.16l-2.552 2.494a.8.8 0 0 0-.377-.363.96.96 0 0 0-.478-.13q-.42 0-.74.305a.94.94 0 0 0-.304.71m16.039 3.045h3.755l-7.931 21.75h-3.756l2.625-7.25-5.22-14.5h3.871l3.118 9.657z" fill="#ff6900"/>
  <defs>
    <clipPath id="a">
      <path fill="#fff" d="M0 3h29v29H0z"/>
    </clipPath>
  </defs>
</svg>
